<svg width="18" height="18" viewBox="0 0 18 18" fill="none" xmlns="http://www.w3.org/2000/svg">
<path d="M16 15.2142L11.674 10.8879C12.5435 9.8422 13.067 8.49915 13.067 7.03332C13.067 3.701 10.3659 1 7.03348 1C3.70167 0.99997 1 3.70097 1 7.03329C1 10.365 3.70167 13.0666 7.03348 13.0666C8.49968 13.0666 9.84244 12.5432 10.8881 11.6736L15.2142 16L16 15.2142ZM1.6351 7.03329C1.6351 4.05665 4.05643 1.63505 7.03348 1.63505C10.0099 1.63505 12.4319 4.05665 12.4319 7.03329C12.4319 10.0099 10.0099 12.4315 7.03348 12.4315C4.05643 12.4315 1.6351 10.01 1.6351 7.03329Z" fill="#151515" stroke="white" stroke-width="1.5"/>
</svg>
